<svg version="1.1" id="Layer_1" xmlns="http://www.w3.org/2000/svg" xmlns:xlink="http://www.w3.org/1999/xlink" x="0px" y="0px" width="100%" viewBox="0 0 1280 1025" enable-background="new 0 0 1280 1025" xml:space="preserve">

<path fill="#FFFFFF" opacity="1.000000" stroke="none" d="
M800.645020,712.740601 
	C791.513794,715.488037 782.808044,718.362732 773.916565,720.444580 
	C763.094055,722.978577 752.189941,725.430481 741.182983,726.835815 
	C730.115112,728.248962 718.885437,728.626099 707.712463,728.922485 
	C695.052490,729.258362 682.355042,729.452087 669.715454,728.843689 
	C661.015015,728.424927 652.385193,726.537354 643.724121,725.303467 
	C637.051208,724.352844 632.768250,719.496033 630.366455,714.311584 
	C624.742188,702.170837 619.287170,689.754028 615.723999,676.905273 
	C611.104370,660.247253 606.815430,643.344666 606.935242,625.747620 
	C606.986816,618.166138 606.038269,610.578857 606.065002,602.996033 
	C606.112244,589.617432 610.124817,578.129944 619.438660,567.648743 
	C636.276062,548.700806 655.943970,533.711548 677.635193,521.066833 
	C682.855286,518.023865 688.314331,515.390564 694.684326,512.030273 
	C691.724365,511.587097 689.763550,511.055847 687.798340,511.039215 
	C677.634644,510.953064 667.468323,511.083893 657.307129,510.901550 
	C655.865173,510.875641 654.446533,509.550201 653.017090,508.826233 
	C654.102722,507.875946 655.054504,506.674316 656.294556,506.013733 
	C670.573608,498.407104 684.701294,490.479462 699.255859,483.436157 
	C718.250305,474.244293 737.387268,465.280609 756.848755,457.141083 
	C772.584106,450.559937 788.655212,444.532410 805.020691,439.789124 
	C817.204468,436.257812 830.088562,435.119659 842.682495,433.048401 
	C844.943115,432.676605 847.343628,433.194702 849.621277,432.880066 
	C855.682617,432.042694 857.266663,436.993866 857.597168,440.628235 
	C858.423279,449.713654 858.149658,458.918640 857.988220,468.069824 
	C857.721436,483.197632 850.552368,496.559357 846.518799,510.718048 
	C846.013977,512.490051 843.370178,514.289734 841.360718,514.897949 
	C819.886475,521.397217 798.242249,527.346619 776.839355,534.067078 
	C751.982239,541.872192 728.805542,553.621399 706.748657,567.253479 
	C691.456604,576.704590 676.629944,587.262451 665.681396,601.984741 
	C661.789795,607.217712 658.821655,613.158752 655.651184,618.897705 
	C654.055786,621.785522 654.532043,624.279480 658.333313,624.982849 
	C669.284058,627.009094 680.176453,629.571472 691.216431,630.829773 
	C701.205750,631.968262 711.357178,631.835938 721.440857,631.958679 
	C735.105408,632.125000 748.826355,632.757935 762.426758,631.809448 
	C779.643494,630.608704 796.802063,628.300293 813.912903,625.941406 
	C827.676147,624.044006 841.318054,621.275208 855.058594,619.187805 
	C856.170593,619.018799 858.844421,621.276184 858.738586,622.159790 
	C857.680054,630.989990 856.867859,639.957031 854.497375,648.471069 
	C853.514587,652.000793 849.383240,655.260071 845.911316,657.373413 
	C836.651062,663.010376 827.052429,668.114807 817.418030,673.102112 
	C813.724121,675.014221 811.867249,677.401733 811.958618,681.598145 
	C812.110840,688.593323 811.532043,695.636414 812.159302,702.578186 
	C812.601013,707.466675 810.163513,709.343689 806.490784,710.798279 
	C804.709229,711.503967 802.825623,711.951843 800.645020,712.740601 
z" data-index="1"></path>
<path fill="#FFFFFF" opacity="1.000000" stroke="none" d="
M286.270569,541.232605 
	C293.154724,528.351868 300.054077,515.876709 306.296326,503.081055 
	C311.599945,492.209442 316.133636,480.962769 321.030975,469.892212 
	C323.980927,463.223724 326.974823,456.574615 330.258850,449.223083 
	C333.093231,451.107880 335.466461,452.427887 337.534851,454.120453 
	C340.838562,456.823822 343.774017,459.993011 347.166656,462.568085 
	C351.853333,466.125366 352.540771,470.698334 352.115265,476.155975 
	C351.663239,481.953705 351.351074,487.917908 352.259735,493.604584 
	C352.759735,496.734070 355.752228,499.553467 357.879639,502.313293 
	C360.788666,506.086975 365.372131,509.251099 366.606293,513.450073 
	C367.936493,517.975525 367.269531,523.755249 365.669617,528.361084 
	C358.108856,550.127502 350.437042,571.883850 341.816284,593.244873 
	C334.568726,611.203186 326.254486,628.754028 317.848511,646.213806 
	C312.415070,657.499390 306.340881,668.521484 299.885895,679.260193 
	C289.206146,697.027222 278.419373,714.761353 266.839142,731.944275 
	C259.499939,742.834290 250.756332,752.794006 242.441147,763.006958 
	C219.808182,790.805359 194.518005,816.131836 169.117767,841.344177 
	C162.596359,847.817261 155.895279,854.118347 149.061600,860.259033 
	C147.915985,861.288452 145.384323,861.856323 143.976852,861.334045 
	C136.180817,858.440552 128.551254,855.101807 120.827835,852.007568 
	C118.023911,850.884216 115.104462,850.052673 112.263016,849.018494 
	C109.420120,847.983704 109.333221,846.381592 111.246391,844.212158 
	C120.710594,833.480042 130.351868,822.893066 139.501251,811.897522 
	C148.464584,801.125671 157.143967,790.097595 165.527756,778.868286 
	C177.135742,763.320312 188.957657,747.875061 199.550003,731.643250 
	C208.716232,717.596924 216.669754,702.710876 224.462433,687.831116 
	C231.096237,675.164185 236.737274,661.977356 242.817535,649.020508 
	C242.368286,648.707092 241.919037,648.393616 241.469788,648.080200 
	C239.915817,649.283386 238.358612,650.482422 236.808380,651.690369 
	C226.310471,659.870178 215.663757,667.868774 205.380508,676.310120 
	C200.220551,680.545715 196.226929,676.684753 193.208450,674.367493 
	C183.355667,666.803772 174.253555,658.269897 164.716782,650.283386 
	C159.922455,646.268433 158.534790,640.897705 158.030106,635.169128 
	C154.944839,600.148682 154.299210,565.040344 155.101059,529.923584 
	C155.533371,510.990784 156.737000,492.062408 158.109695,473.169617 
	C158.825729,463.314575 160.368988,453.488464 162.114288,443.752472 
	C163.003693,438.791138 164.812790,438.657104 168.592316,442.076660 
	C181.666901,453.905884 194.858749,465.606171 207.868378,477.505951 
	C210.388718,479.811279 212.238602,482.503571 212.123444,486.576263 
	C211.779694,498.731812 211.494614,510.929169 212.115555,523.062622 
	C213.108383,542.462708 214.378418,561.812073 217.681931,581.077393 
	C220.152618,595.485718 223.825256,609.302612 229.325287,623.485962 
	C252.926117,598.979797 269.355377,570.164062 286.270569,541.232605 
z" data-index="2"></path>
<path fill="#FFFFFF" opacity="1.000000" stroke="none" d="
M394.999756,741.135925 
	C394.999786,738.328308 394.999786,735.995972 394.999786,733.663635 
	C394.624451,733.293945 394.249084,732.924255 393.873749,732.554565 
	C392.291473,734.556396 390.780273,736.619812 389.111053,738.546265 
	C386.311096,741.777466 377.907166,742.316406 374.983612,739.313965 
	C374.221771,738.531555 373.908264,736.873352 374.063721,735.707458 
	C375.178253,727.348267 376.548798,719.023315 377.678162,710.665955 
	C378.877350,701.792053 379.862335,692.889404 381.009186,684.008179 
	C382.528717,672.240906 384.144104,660.486023 385.656036,648.717834 
	C386.197144,644.506165 386.540588,640.269348 387.002899,636.047241 
	C388.316406,624.051147 389.660614,612.058289 390.957733,600.060425 
	C391.362488,596.316956 391.718109,592.566040 391.989014,588.810730 
	C393.017059,574.561523 393.923798,560.303101 395.041382,546.061096 
	C395.461578,540.706238 396.015228,535.323120 397.068939,530.065308 
	C398.876587,521.045776 393.285187,514.868774 388.779175,508.575714 
	C385.652435,504.208832 384.077759,500.406891 385.911621,495.186798 
	C386.967865,492.180267 387.578735,488.872864 387.623291,485.690186 
	C387.685669,481.232910 390.478668,479.710754 393.909973,478.564056 
	C404.532532,475.014252 415.376770,472.007294 425.693634,467.726105 
	C429.495789,466.148346 432.066956,461.605164 435.200867,458.415863 
	C443.439178,450.031769 451.244568,441.231262 462.788544,436.923798 
	C471.305725,433.745758 480.078888,437.564087 481.876923,446.383240 
	C482.565430,449.760498 483.209808,450.065033 486.658905,449.300690 
	C495.329163,447.379364 504.159607,445.837402 513.004578,445.134338 
	C524.210266,444.243683 535.515259,443.744385 546.738098,444.153564 
	C559.836304,444.631165 572.897949,446.729614 584.125061,454.128998 
	C592.135376,459.408356 596.147095,467.797455 596.892334,477.164673 
	C598.409241,496.230927 593.447937,514.283081 585.643555,531.343201 
	C581.068237,541.344727 574.540100,550.487732 568.458191,559.732605 
	C567.387390,561.360291 564.144531,562.366943 561.969910,562.265259 
	C558.951538,562.124207 557.702209,559.925232 557.898926,556.462585 
	C558.508667,545.728088 558.734314,534.969543 558.972168,524.217224 
	C559.096741,518.586792 558.483154,518.430420 552.914856,518.893616 
	C547.965027,519.305298 542.947449,518.820312 537.972717,519.033325 
	C524.640808,519.604004 511.473969,521.261414 498.772461,525.639282 
	C497.258453,526.161133 495.710754,526.598572 494.157257,526.990112 
	C488.796783,528.341125 485.025269,530.384766 483.354828,536.829041 
	C478.167419,556.841064 471.966492,576.590027 466.198425,596.452515 
	C465.807159,597.799805 465.744080,599.242432 465.516876,600.715393 
	C470.463165,600.156311 475.567566,599.213684 480.694824,599.066162 
	C498.272369,598.560364 515.893188,597.520447 533.428223,598.281677 
	C545.405640,598.801514 557.837402,598.873718 569.076538,604.547302 
	C576.068054,608.076538 578.783997,613.845276 576.762085,621.497681 
	C575.250061,627.220764 573.786560,633.000549 571.609741,638.480408 
	C570.844360,640.407104 568.195496,642.460632 566.111084,642.842163 
	C555.115479,644.854858 543.834900,645.571045 533.012939,648.211365 
	C516.847534,652.155334 500.879913,657.009155 485.021332,662.079956 
	C472.527863,666.074829 460.411224,671.238037 447.959564,675.378235 
	C441.423553,677.551514 441.096527,683.373169 439.066162,688.187866 
	C432.283142,704.272766 425.802216,720.484985 419.043335,736.580322 
	C413.902191,748.823242 408.514099,760.962524 403.222015,773.179749 
	C411.828339,776.153564 406.087158,783.655701 408.677795,788.999878 
	C410.631470,788.999878 412.915100,788.992310 415.198639,789.002075 
	C417.503174,789.011963 420.701477,788.651306 419.800873,792.163757 
	C419.236755,794.363770 417.076111,796.658997 415.016357,797.811401 
	C413.367859,798.733704 410.791565,797.997681 407.999329,797.997681 
	C407.999329,807.832825 407.999359,817.600281 407.999268,827.367798 
	C407.999268,829.200806 407.945923,831.035706 408.010254,832.866455 
	C408.120575,836.005920 407.017303,838.144897 403.536407,837.964966 
	C400.383972,837.802002 397.883270,836.988281 397.942841,832.839966 
	C398.107483,821.375610 397.999817,809.907471 397.999817,798.871094 
	C395.204071,796.181641 389.100616,801.257019 389.047455,794.323853 
	C389.002594,788.473938 393.251129,788.660767 398.158539,789.130127 
	C398.158539,784.282593 398.158539,779.615295 398.158539,774.299683 
	C390.590393,770.753296 394.618530,763.083801 394.147003,756.853516 
	C393.766266,751.823059 394.667328,746.695618 394.999756,741.135925 
z" data-index="3"></path>
<path fill="#FFFFFF" opacity="1.000000" stroke="none" d="
M968.999146,651.937073 
	C968.999146,631.321838 968.999146,611.198608 968.999146,590.245239 
	C965.121643,590.245239 961.723877,589.940979 958.444580,590.430359 
	C957.460266,590.577332 956.532959,592.848267 956.065125,594.302368 
	C955.370728,596.460571 955.108704,598.757874 954.414429,602.241943 
	C950.933960,597.354431 947.911682,597.562622 944.100037,599.261292 
	C940.804321,600.729980 936.099121,602.934082 933.642944,601.665344 
	C925.950500,597.691833 921.979431,603.975708 917.107727,606.650330 
	C903.758423,613.979187 889.933289,615.771423 874.898621,614.280640 
	C863.408203,613.141235 851.698853,608.936157 840.068909,613.982910 
	C839.485413,614.236023 838.759277,614.147156 838.156250,614.370605 
	C827.958679,618.150146 823.994629,615.513123 824.058167,604.421631 
	C824.118835,593.836731 824.529236,583.247620 825.067017,572.674683 
	C825.280701,568.472534 824.230225,566.883301 819.628296,566.798218 
	C815.580994,566.723328 811.564636,564.923767 807.536682,563.877930 
	C802.579163,562.590759 797.598450,561.381470 792.688232,559.933472 
	C791.660767,559.630554 790.365051,558.545227 790.170471,557.615784 
	C789.997437,556.789246 791.179626,555.679199 791.378723,555.343384 
	C789.588501,554.811584 786.677917,553.947021 783.767395,553.082458 
	C783.792114,552.338257 783.816833,551.594116 783.841553,550.849976 
	C786.980652,550.438110 790.119751,550.026245 794.349426,549.471252 
	C790.644592,548.491089 787.620667,548.081909 784.982361,546.848267 
	C783.366211,546.092590 782.341370,544.072266 781.050964,542.619934 
	C782.817200,542.104309 784.701355,540.917175 786.327026,541.202515 
	C790.709351,541.971863 794.981445,543.368958 799.587402,543.467468 
	C795.520020,541.991028 791.394897,540.649292 787.424316,538.947144 
	C786.380920,538.499817 785.815979,536.936401 785.031311,535.885620 
	C786.222656,535.256836 787.534851,533.935242 788.584534,534.118347 
	C793.326111,534.945374 797.991455,536.206665 802.688232,537.294373 
	C805.308899,537.901367 807.937195,538.475037 811.371155,539.245178 
	C809.488098,534.276184 807.865051,529.993286 806.242004,525.710449 
	C806.673889,525.373474 807.105835,525.036499 807.537781,524.699524 
	C808.947998,525.206665 810.659302,525.364563 811.718994,526.278259 
	C818.058472,531.744141 824.029175,537.661743 830.592468,542.832764 
	C833.316772,544.979065 837.097839,546.082153 840.576782,546.910645 
	C847.935486,548.663025 855.634827,549.234375 862.784851,551.553101 
	C872.456848,554.689453 882.097473,556.314148 891.669189,552.789429 
	C896.677063,550.945251 900.784607,546.791443 905.562439,544.159302 
	C915.649597,538.602173 925.847473,533.235352 936.134460,528.057800 
	C939.616150,526.305481 941.039673,524.265320 941.193787,520.167114 
	C941.384705,515.093201 943.087158,510.088074 943.981384,505.025818 
	C945.388367,497.061707 945.891052,488.840851 948.209412,481.161255 
	C950.683411,472.966125 954.654541,465.193665 958.369690,457.426880 
	C959.129761,455.837860 961.565002,454.922882 963.377258,453.985443 
	C973.592041,448.701324 983.835266,449.340027 993.362427,455.255188 
	C999.551636,459.097900 1002.057678,466.174286 1003.835266,472.787781 
	C1006.503784,482.715942 1008.105225,492.939545 1009.964478,503.073456 
	C1011.161926,509.600128 1011.288757,516.426941 1013.327209,522.650208 
	C1014.291626,525.594360 1018.252197,528.432556 1021.478027,529.604431 
	C1033.551636,533.990417 1044.568359,540.012878 1054.530640,548.095581 
	C1064.069092,555.834473 1074.938477,556.278198 1086.244629,553.312256 
	C1096.520752,550.616516 1106.629028,547.316895 1117.405762,546.825562 
	C1119.641846,546.723572 1122.025635,544.775269 1123.919800,543.177979 
	C1130.400024,537.713745 1136.647339,531.973633 1143.108032,526.485657 
	C1144.012939,525.716980 1145.614746,525.768616 1146.893921,525.440613 
	C1147.125000,526.939880 1147.950439,528.675903 1147.466797,529.890442 
	C1146.371094,532.641541 1144.630371,535.135742 1142.330566,539.177917 
	C1146.708374,538.489441 1149.927246,538.200134 1153.029907,537.438232 
	C1156.598633,536.562012 1160.015869,535.059082 1163.591309,534.224426 
	C1166.232178,533.607849 1169.248413,533.142517 1170.088623,538.006042 
	C1165.605591,539.705261 1160.943359,541.472351 1156.281128,543.239502 
	C1156.382202,543.606445 1156.483276,543.973389 1156.584351,544.340332 
	C1161.558716,543.104675 1166.533081,541.869080 1171.661743,540.595154 
	C1172.351562,544.677002 1172.385742,547.204468 1167.698242,547.141113 
	C1165.653931,547.113464 1163.589233,548.604736 1161.302124,549.496582 
	C1164.393555,549.997192 1167.270142,550.463013 1170.146851,550.928833 
	C1170.190186,551.579712 1170.233643,552.230591 1170.277100,552.881470 
	C1167.683594,553.821289 1165.090210,554.761047 1162.496704,555.700867 
	C1162.898315,555.750977 1163.299805,555.801086 1163.701294,555.851196 
	C1163.163940,557.226501 1162.905273,559.583862 1162.046753,559.827332 
	C1151.736206,562.752563 1141.336914,565.364624 1130.104980,568.280640 
	C1130.104980,574.461243 1130.244019,581.876282 1130.066284,589.283752 
	C1129.884399,596.859497 1130.161377,604.570251 1128.795288,611.955078 
	C1127.677368,617.997437 1125.969360,617.948853 1119.570923,616.077148 
	C1114.029175,614.455811 1108.614746,611.960083 1102.970459,611.270081 
	C1098.642334,610.741089 1094.001831,612.224670 1089.573120,613.158630 
	C1075.069214,616.217407 1060.647461,615.872375 1046.783569,610.733704 
	C1039.800049,608.145386 1033.504028,603.702332 1026.494873,599.878540 
	C1022.471863,614.692932 1025.219116,629.836914 1024.901978,645.712158 
	C1020.209106,640.338745 1016.618713,636.207458 1013.003967,632.097473 
	C1011.240295,630.092041 1009.245117,628.260193 1007.696594,626.104187 
	C1006.233765,624.067383 1004.457336,621.810303 1004.146179,619.473389 
	C1003.112244,611.709656 1002.076599,603.855103 1002.223206,596.057556 
	C1002.319763,590.923279 1000.325745,589.735596 996.135376,590.082214 
	C992.589294,590.375549 989.069214,590.983093 984.755859,591.555359 
	C984.755859,614.701782 984.755859,638.164124 984.755859,660.528625 
	C1005.118225,663.569336 1025.657593,666.628906 1046.185669,669.762512 
	C1046.553101,669.818542 1046.785278,670.760986 1047.319580,671.717834 
	C999.620239,671.717834 952.428406,671.717834 905.236511,671.717834 
	C905.075012,671.407471 904.913452,671.097046 904.751953,670.786682 
	C906.367920,669.908875 907.904724,668.492310 909.612793,668.241333 
	C920.227356,666.681824 930.863953,665.236145 941.526062,664.046997 
	C949.666443,663.139160 957.866699,662.770386 966.008850,661.874817 
	C967.099976,661.754883 968.594788,660.085815 968.866943,658.896912 
	C969.338257,656.838806 968.998596,654.594971 968.999146,651.937073 
M954.015991,558.953857 
	C954.011169,560.773010 954.005737,562.592224 954.001648,564.411377 
	C953.973145,577.006104 953.967712,576.923767 966.656860,576.066101 
	C969.313416,575.886597 970.062683,574.859314 970.008911,572.427612 
	C969.902893,567.633789 969.964172,562.836304 969.988464,557.175537 
	C969.989014,555.451111 969.989624,553.726624 969.995605,551.126038 
	C970.108887,549.549377 970.222107,547.972717 970.326965,546.513306 
	C982.942749,544.742737 982.942810,544.742737 983.011902,556.525635 
	C983.012878,556.690796 983.017151,556.855896 983.015198,557.953735 
	C983.014160,558.615906 982.982422,559.279602 983.016907,559.939941 
	C983.289062,565.151855 981.635803,572.453796 984.385132,575.002625 
	C987.292053,577.697449 994.406860,575.701538 999.661865,576.067261 
	C1003.312988,576.321289 1004.247864,574.761536 1004.049744,571.433716 
	C1003.823853,567.639526 1003.990540,563.822021 1003.998840,559.076843 
	C1003.996826,554.415161 1004.200867,549.738708 1003.867859,545.100769 
	C1003.767395,543.702148 1002.289551,541.355896 1001.247864,541.243103 
	C995.004456,540.567322 988.692810,540.014160 982.425842,540.190979 
	C974.441101,540.416321 966.457581,541.211731 958.521057,542.159546 
	C957.004822,542.340637 955.205872,544.116943 954.453735,545.616760 
	C953.704346,547.111206 954.107239,549.183533 953.999573,551.878174 
	C954.006165,553.925415 954.012756,555.972717 954.015991,558.953857 
z" data-index="4"></path>
<path fill="#FEFEFE" opacity="1.000000" stroke="none" d="
M701.001221,866.088867 
	C701.001282,880.235962 700.816040,893.900330 701.105835,907.554749 
	C701.202026,912.088013 699.687988,913.575195 695.391785,913.041077 
	C693.423157,912.796326 691.398804,913.005066 689.399719,912.999023 
	C683.554504,912.981506 678.130127,912.947815 672.679382,916.771667 
	C667.196777,920.618042 660.555542,920.521912 654.728699,915.473938 
	C652.976685,913.956116 650.059265,913.109375 647.671387,913.100464 
	C609.522522,912.957336 571.372864,912.993958 533.223450,913.006165 
	C526.208130,913.008423 522.676514,918.149109 526.107910,923.768738 
	C527.068542,925.342041 529.556946,926.719910 531.439758,926.854370 
	C537.075134,927.256897 542.764038,927.162109 548.419373,926.939697 
	C551.858643,926.804382 553.270630,927.884277 553.066528,931.465393 
	C552.877991,934.773987 553.160156,938.027893 548.439941,938.007263 
	C542.442688,937.981140 536.298645,938.838196 530.479675,937.819153 
	C519.566956,935.908081 512.699890,929.817871 514.987122,918.018311 
	C517.099854,907.119324 522.044189,903.081360 533.110107,903.002136 
	C535.910583,902.982117 538.711304,902.999207 541.463989,902.999207 
	C543.800415,887.348206 542.661865,886.210938 523.254150,884.704712 
	C523.254150,881.661255 523.254150,878.587952 523.260376,875.511841 
	C541.319214,873.736816 553.992432,873.896057 553.133423,902.998779 
	C556.062134,902.998779 558.993042,902.998840 561.923889,902.998840 
	C564.741028,902.998840 567.558167,902.998779 571.001404,902.998779 
	C571.001404,898.252991 571.001404,893.662048 571.001404,889.071167 
	C571.001404,884.588623 571.001404,880.106079 571.001404,875.312012 
	C574.227844,875.312012 577.303467,875.312012 580.777954,875.312012 
	C580.777954,884.216858 580.777954,893.297302 580.777954,902.686462 
	C585.565430,902.686462 589.970703,902.686462 594.998718,902.686462 
	C594.998718,896.254211 594.998047,889.661011 594.998901,883.067749 
	C594.999939,874.479980 597.045776,873.021729 606.407349,875.573181 
	C605.952881,880.982910 605.403748,886.521484 605.055054,892.072632 
	C604.868958,895.035645 604.342529,898.271362 605.302307,900.896790 
	C605.836914,902.359192 609.105591,902.822083 611.999207,904.119751 
	C611.999207,896.451965 612.293213,889.977661 611.931702,883.540039 
	C611.359863,873.355530 614.011902,872.515320 622.634033,875.293579 
	C622.634033,884.163147 622.634033,893.018188 622.634033,902.658081 
	C624.802979,902.799316 627.137024,902.951233 629.882202,903.130005 
	C629.882202,893.735168 629.882202,884.636414 629.882202,875.753296 
	C630.504944,875.367432 630.765442,875.065857 631.029968,875.062317 
	C641.658264,874.919067 639.896484,874.342224 639.989258,883.569824 
	C640.052612,889.873352 640.001404,896.177979 640.001404,902.738647 
	C642.331543,902.738647 644.401917,902.738647 645.695557,902.738647 
	C647.158997,896.504517 647.928284,890.186401 650.177795,884.448608 
	C652.735596,877.924133 656.346252,874.149841 667.413757,874.984863 
	C672.798401,875.391113 679.850647,881.470947 680.979492,887.015686 
	C682.009644,892.075745 682.855103,897.173523 683.861023,902.688110 
	C685.552856,902.688110 687.965088,902.688110 690.998718,902.688110 
	C690.998718,896.127869 690.998535,889.361694 690.998779,882.595520 
	C690.999023,875.598694 691.207092,868.593445 690.925476,861.607971 
	C690.744446,857.116394 693.436462,857.183594 696.560608,856.946716 
	C700.174377,856.672668 701.402954,858.206116 701.024780,861.606812 
	C700.878357,862.923279 701.001099,864.269592 701.001221,866.088867 
M657.994263,891.720459 
	C658.010254,896.177856 657.211121,900.837219 658.252747,905.040466 
	C659.499634,910.072205 665.875427,911.000977 669.379211,907.079285 
	C673.767334,902.167786 672.216309,896.366638 671.223450,890.790894 
	C670.581055,887.183105 667.714172,884.659485 664.517578,885.300720 
	C662.070740,885.791504 660.153748,888.923767 657.994263,891.720459 
z" data-index="5" style="opacity: 1;"></path>
<path fill="#FEFEFE" opacity="1.000000" stroke="none" d="
M994.745117,876.940308 
	C1004.099487,883.280762 1005.406677,892.598999 1004.975586,902.746704 
	C1010.666504,902.746704 1016.073181,902.746704 1022.001221,902.746704 
	C1022.001221,896.466675 1021.482727,890.137268 1022.205200,883.952820 
	C1022.607056,880.512329 1018.126465,874.062805 1026.602539,874.010681 
	C1032.000366,873.977478 1032.000610,874.024292 1032.000732,883.763123 
	C1032.000732,890.046143 1032.000732,896.329163 1032.000732,902.801636 
	C1041.466553,902.801636 1050.533325,902.801636 1059.997070,902.801636 
	C1059.997070,901.991943 1059.998291,901.373474 1059.996948,900.755005 
	C1059.971436,889.262512 1062.611816,884.617920 1044.807983,885.082336 
	C1040.570312,885.192810 1039.897339,883.458252 1039.882568,879.767822 
	C1039.867554,876.040100 1041.043701,874.576233 1044.773315,874.971252 
	C1049.153564,875.435181 1053.702881,875.094543 1057.918091,876.147095 
	C1064.993896,877.914001 1069.889038,885.026611 1069.987671,892.506348 
	C1070.055786,897.667419 1069.763550,902.844604 1070.077148,907.987488 
	C1070.321777,911.996033 1068.919189,913.117798 1064.965210,913.083679 
	C1044.318848,912.905701 1023.669678,912.945496 1003.022888,913.093750 
	C1001.138184,913.107239 998.859924,913.970032 997.454834,915.216675 
	C992.159729,919.914673 982.996399,920.563477 977.494324,915.884033 
	C973.862915,912.795654 969.795349,912.950195 965.531738,912.973267 
	C951.999512,913.046509 951.999329,912.999268 951.999268,899.503235 
	C951.999207,887.347595 951.996887,875.192017 952.000610,863.036377 
	C952.001587,859.860107 951.731445,856.819763 956.608765,856.898682 
	C961.315918,856.974792 961.983643,859.722473 961.990295,863.308411 
	C962.013062,875.630554 961.998169,887.952698 962.005188,900.274841 
	C962.005676,901.068420 962.070496,901.862000 962.111816,902.802612 
	C964.481140,902.802612 966.549683,902.802612 968.504211,902.802612 
	C969.016785,898.075745 969.082458,893.460022 970.081665,889.056030 
	C972.484924,878.463623 981.438477,870.912842 994.745117,876.940308 
M994.001953,899.644226 
	C993.548096,896.135620 993.755432,892.338867 992.397888,889.224060 
	C991.553894,887.287292 988.058350,884.992004 986.260437,885.357178 
	C983.855103,885.845703 980.958252,888.363708 980.023865,890.708191 
	C978.150452,895.409302 977.697083,900.724304 980.869690,905.197388 
	C982.300781,907.215088 985.018127,909.750488 986.955078,909.595276 
	C989.085205,909.424500 991.187500,906.599487 992.905823,904.591858 
	C993.737732,903.619812 993.663696,901.872437 994.001953,899.644226 
z" data-index="6" style="opacity: 1;"></path>
<path fill="#FEFEFE" opacity="1.000000" stroke="none" d="
M881.651489,902.565735 
	C881.954285,893.250549 881.954285,884.304321 881.954285,875.181519 
	C885.363159,875.181519 888.318481,875.181519 892.001343,875.181519 
	C892.001343,880.780273 892.001465,886.525696 892.001343,892.271057 
	C892.001282,897.932983 891.912476,903.596863 892.038086,909.255981 
	C892.100830,912.078247 890.967102,913.042053 888.197632,913.035645 
	C861.719971,912.974487 835.242004,912.974182 808.764343,913.035583 
	C805.962708,913.042114 804.950806,912.003723 804.964355,909.216736 
	C805.041260,893.397034 805.040222,877.576599 804.962036,861.756897 
	C804.948242,858.952332 805.997437,857.784119 808.787964,857.975708 
	C810.610535,858.100830 812.448669,857.999390 814.836548,857.999390 
	C814.836548,872.905701 814.836548,887.765991 814.836548,902.807617 
	C817.460205,902.807617 819.527710,902.807617 822.006287,902.807617 
	C822.006287,895.687500 822.021790,888.733826 822.001831,881.780334 
	C821.982178,874.937988 821.966431,874.939148 828.757263,874.999023 
	C829.708923,875.007446 830.660767,875.000122 831.998657,875.000122 
	C831.998657,884.448425 831.998657,893.526855 831.998657,902.221802 
	C832.507812,902.708740 832.620605,902.914612 832.746399,902.922791 
	C846.997803,903.852722 846.997986,903.851990 846.998901,889.724731 
	C846.999268,884.919678 846.998962,880.114624 846.998962,875.351562 
	C857.001160,874.331055 857.001160,874.331055 857.000977,883.983154 
	C857.000793,890.126099 857.000854,896.268982 857.000854,902.369263 
	C864.598877,903.787231 865.113831,903.455627 864.955383,895.900818 
	C864.852173,890.983032 864.480164,886.058105 863.955811,881.165649 
	C863.462219,876.559448 864.795227,874.140381 869.882568,874.962524 
	C871.337708,875.197754 872.863037,874.998657 874.748535,874.998657 
	C874.748535,884.163879 874.748535,893.243286 874.748535,902.934753 
	C877.193481,902.934753 879.271057,902.934753 881.651489,902.565735 
z" data-index="7" style="opacity: 1;"></path>

<path fill="#FFFFFF" opacity="1.000000" stroke="none" d="
M845.786743,833.583801 
	C843.415466,835.794617 842.648804,840.644470 838.780396,838.643005 
	C837.291016,837.872375 837.108154,833.744568 837.073242,831.136475 
	C836.908020,818.811340 837.039795,806.482605 836.970154,794.155701 
	C836.954285,791.342041 837.025879,788.661926 840.444519,788.048950 
	C844.139160,787.386597 845.935303,789.531006 846.390564,792.900879 
	C846.821777,796.093811 847.008484,799.319824 847.421692,803.829712 
	C849.234375,800.066223 850.194153,796.995422 852.020203,794.579346 
	C853.921997,792.063171 856.317383,789.153442 859.100647,788.224426 
	C865.554504,786.069885 869.937439,789.951233 869.996582,796.942383 
	C870.020569,799.772827 870.000549,802.603760 870.000549,806.651184 
	C872.322327,801.721069 874.088074,797.765381 876.028198,793.897095 
	C879.483765,787.007202 888.121094,786.107727 890.772888,790.123291 
	C892.735168,793.094604 893.723083,797.168335 893.859863,800.799316 
	C894.254761,811.279297 894.061584,821.784363 893.961243,832.278259 
	C893.931335,835.394897 893.216797,838.092712 889.012268,838.058411 
	C884.605652,838.022400 883.931396,835.532227 883.964355,831.914001 
	C884.062683,821.116272 883.999634,810.317200 883.266663,799.270813 
	C880.513672,805.964783 877.772888,812.663757 875.003479,819.350952 
	C873.054260,824.057800 871.086548,828.757263 869.076843,833.438538 
	C868.702759,834.309692 868.274536,835.489746 867.551208,835.814697 
	C865.615234,836.684204 863.505493,837.166687 861.464783,837.802856 
	C861.141174,835.887024 860.553345,833.973328 860.537659,832.054993 
	C860.447815,821.080261 860.494019,810.104431 860.494019,799.128967 
	C860.043762,798.986755 859.593567,798.844543 859.143311,798.702271 
	C854.754395,810.215759 850.365417,821.729248 845.786743,833.583801 
z" data-index="9"></path>
<path fill="#FEFEFE" opacity="1.000000" stroke="none" d="
M365.185150,886.680542 
	C370.009918,895.346069 369.857300,904.017944 366.653992,912.653503 
	C365.408325,916.011719 357.392395,917.951782 353.945892,916.543823 
	C352.588654,915.989319 350.715576,915.759766 349.386810,916.239441 
	C344.308472,918.072327 340.879730,917.103760 337.837738,912.597290 
	C334.375031,914.069702 331.052673,916.194702 327.472351,916.803894 
	C323.907623,917.410522 319.600433,918.236694 316.852417,913.649475 
	C311.554352,921.144531 305.023438,926.922974 296.253021,929.173828 
	C285.916168,931.826660 275.722015,932.569885 265.532715,927.289368 
	C256.801636,922.764648 257.178711,911.251221 263.234863,905.378784 
	C269.604858,899.202026 277.339325,895.661682 286.394958,896.113464 
	C288.256226,896.206360 290.357025,897.433411 291.732269,898.770447 
	C292.396515,899.416199 292.094116,902.460022 291.424194,902.791687 
	C289.876526,903.557861 287.734344,903.799866 286.016846,903.421387 
	C280.504822,902.206909 268.479828,908.749817 267.018433,914.036865 
	C265.713959,918.756226 269.354919,923.430664 275.505035,923.917175 
	C290.100555,925.071655 303.103058,921.658875 311.026855,908.175842 
	C313.435852,904.076721 314.123047,898.797485 314.876221,893.946533 
	C315.482330,890.042603 315.056885,885.968445 314.979431,881.971863 
	C314.922699,879.044189 316.004150,877.108887 319.122742,877.030579 
	C322.484344,876.946228 322.064484,879.512329 321.982910,881.622314 
	C321.696350,889.036682 321.230133,896.445435 321.034302,903.861633 
	C320.888763,909.372314 322.272797,910.359619 327.626709,908.967957 
	C328.699951,908.689026 329.723267,908.174011 330.728027,907.682739 
	C336.306305,904.955444 336.310608,904.885193 331.424408,901.036011 
	C330.635681,902.208008 329.992767,903.489319 329.046265,904.480774 
	C328.046051,905.528625 326.756500,906.300354 325.593384,907.192749 
	C324.955872,905.378967 323.612366,903.478882 323.821259,901.768494 
	C324.325409,897.640137 327.195374,894.266968 331.143005,894.317810 
	C334.096191,894.355835 337.050751,897.051697 339.917847,898.713928 
	C340.504272,899.053894 340.704437,900.060181 341.239349,901.049011 
	C345.467316,899.058044 348.680817,899.882507 350.608643,905.302917 
	C351.223480,900.635132 351.958313,896.652283 358.128845,898.397644 
	C357.859467,901.629333 357.568665,905.117737 357.244293,909.009338 
	C361.890564,909.031921 361.716644,905.269836 361.808075,902.675659 
	C361.962494,898.295532 361.255524,893.889954 361.020660,889.489258 
	C360.876495,886.787903 361.906555,885.291809 365.185150,886.680542 
z" data-index="10"></path>
<path fill="#FFFFFE" opacity="1.000000" stroke="none" d="
M675.933044,775.004822 
	C680.790771,771.871094 685.612610,769.145203 689.670898,765.555908 
	C693.183533,762.449280 694.949463,764.841858 696.363159,767.043762 
	C698.124451,769.786987 697.032288,772.237732 694.144836,774.025269 
	C690.317444,776.394592 686.476929,778.809448 682.967346,781.612122 
	C674.577942,788.311523 673.123840,797.500732 674.136536,806.888367 
	C677.659912,801.914307 681.195374,796.436340 685.253235,791.377380 
	C687.683777,788.347351 691.205078,786.940002 695.207947,788.719177 
	C699.192078,790.490051 701.094910,793.475769 701.043945,797.968994 
	C700.913818,809.456543 700.960022,820.946777 701.026794,832.435425 
	C701.045593,835.672363 700.327026,838.018799 696.474243,838.007080 
	C692.598328,837.995239 691.950195,835.595154 691.973450,832.383972 
	C692.044556,822.560547 691.999146,812.736267 691.999084,802.912354 
	C691.999084,801.338440 691.999084,799.764526 691.999084,798.190674 
	C691.583862,798.026367 691.168640,797.862061 690.753479,797.697815 
	C689.213501,799.971680 687.324158,802.085632 686.196960,804.548462 
	C682.276978,813.113464 678.676575,821.824219 674.824402,830.421143 
	C673.912170,832.457092 672.846130,834.697754 671.198303,836.047791 
	C669.757629,837.228149 667.406738,837.576355 665.441406,837.625244 
	C664.996338,837.636414 664.084473,834.894958 664.065063,833.411743 
	C663.939087,823.755981 663.746582,814.089355 664.066467,804.442566 
	C664.433594,793.373169 667.614990,783.227600 675.933044,775.004822 
z" data-index="11"></path>
<path fill="#FFFFFE" opacity="1.000000" stroke="none" d="
M437.315369,783.180847 
	C429.872528,790.018433 429.881073,798.687622 430.044678,808.274719 
	C433.024048,803.211182 435.255737,798.517212 438.306152,794.435181 
	C443.507599,787.474792 451.301575,785.270508 456.133820,793.763855 
	C456.729614,794.811096 456.957733,796.198181 456.964172,797.429810 
	C457.024841,809.096130 456.960388,820.763062 457.026825,832.429321 
	C457.045258,835.667297 456.332581,838.021667 452.473938,838.009338 
	C448.592896,837.996887 447.954254,835.590027 447.973206,832.377258 
	C448.040039,821.048706 447.999207,809.719482 447.999207,797.795654 
	C443.138214,799.458191 442.672058,803.914001 441.084320,807.255798 
	C436.768250,816.339905 432.879303,825.626404 428.614166,834.735840 
	C427.978241,836.093994 426.318024,837.064575 424.971405,837.978149 
	C422.419952,839.708984 420.999329,838.989319 420.999695,835.825256 
	C421.001190,822.158630 420.232208,808.434082 421.255585,794.844482 
	C422.023163,784.651306 428.916870,777.108215 436.920563,771.084595 
	C439.807587,768.911804 443.313965,767.555786 446.557007,765.864075 
	C449.042572,764.567505 450.814026,764.223511 452.151459,767.752686 
	C453.482330,771.264404 452.531738,773.035034 449.646027,774.819824 
	C445.530579,777.365479 441.600403,780.210632 437.315369,783.180847 
z" data-index="12" style="opacity: 1;"></path>
<path fill="#FFFFFE" opacity="1.000000" stroke="none" d="
M933.424683,902.999084 
	C937.040771,902.999329 940.207031,903.022278 943.372803,902.993835 
	C946.884949,902.962280 949.785339,903.322083 948.103882,908.174072 
	C947.804443,909.038208 948.613403,910.286499 949.248291,912.574585 
	C943.985535,912.721680 938.999756,912.713440 934.037537,913.051086 
	C930.668030,913.280396 927.028198,913.350647 924.092896,914.732117 
	C922.302734,915.574646 920.575867,918.823181 920.681396,920.896301 
	C920.845276,924.114197 922.657349,927.086487 926.900940,927.023865 
	C933.065002,926.932800 939.231873,927.043457 945.396667,926.983337 
	C949.150940,926.946716 948.964539,929.592468 948.981323,932.068726 
	C948.996582,934.322083 949.633789,937.023499 945.890015,937.008118 
	C938.898254,936.979370 931.884155,937.352661 924.920166,936.911926 
	C916.451904,936.376038 912.038940,931.565735 910.129272,924.191956 
	C908.356873,917.348206 911.875916,909.169189 918.124084,905.355408 
	C914.543152,900.161987 912.716553,894.687195 914.877258,888.218750 
	C917.911194,879.136169 923.481567,875.858276 931.324829,875.049133 
	C934.292664,874.742981 937.355591,875.297913 940.309509,874.931458 
	C945.126831,874.333618 946.364441,876.339050 946.120728,880.868408 
	C945.939148,884.244141 944.718506,885.136597 941.591675,885.066956 
	C938.334290,884.994385 934.976257,885.057678 931.820068,885.765320 
	C925.854431,887.102905 923.797791,889.677795 924.000854,894.451477 
	C924.188599,898.863586 927.599060,902.112122 933.424683,902.999084 
z" data-index="13" style="opacity: 1;"></path>
<path fill="#FEFEFE" opacity="1.000000" stroke="none" d="
M384.274780,837.305603 
	C378.413940,838.300964 377.113770,837.276489 377.019073,831.840027 
	C376.935913,827.066650 377.001678,822.290588 377.001678,816.734924 
	C374.318390,821.880005 372.295624,826.504089 369.586945,830.683533 
	C367.855316,833.355347 365.443695,835.914307 362.749817,837.566711 
	C357.045471,841.065491 350.115601,836.945984 350.038696,830.161255 
	C349.898926,817.836609 349.865387,805.506165 350.150360,793.186523 
	C350.190826,791.437134 352.164856,788.380188 353.419556,788.286743 
	C356.207855,788.079224 359.039429,789.344788 359.017731,793.225830 
	C358.964600,802.720032 359.000916,812.214722 359.001221,821.709229 
	C359.001282,823.766724 359.001221,825.824219 359.001221,827.881714 
	C359.579834,828.054871 360.158447,828.228027 360.737061,828.401184 
	C363.824097,822.435974 366.966095,816.498352 369.984009,810.498352 
	C373.643219,803.223511 377.102661,795.845581 380.910492,788.651001 
	C381.418732,787.690674 383.569733,786.976257 384.759491,787.202454 
	C385.670288,787.375549 386.893494,789.206055 386.904724,790.310364 
	C387.049072,804.467407 387.068298,818.627197 386.895203,832.783569 
	C386.877747,834.210693 385.400940,835.619873 384.274780,837.305603 
z" data-index="14" style="opacity: 1;"></path>
<path fill="#FFFFFE" opacity="1.000000" stroke="none" d="
M632.869995,776.633667 
	C640.291565,773.703857 647.555420,771.962708 654.346802,776.954407 
	C660.769958,781.675354 660.572327,783.691406 654.010742,788.959045 
	C643.808411,780.888000 636.600586,782.474609 628.660217,793.639648 
	C622.701111,802.018616 621.859192,810.914917 624.036499,820.463501 
	C625.089355,825.080933 632.276611,829.360901 637.029846,828.440308 
	C645.591980,826.782166 645.591980,826.782166 653.129150,819.439026 
	C660.432068,822.493042 661.010254,825.523193 654.984009,830.938843 
	C645.599609,839.372498 634.132874,841.826111 622.535034,835.678345 
	C616.844238,832.661682 613.666016,826.713806 613.170593,820.443665 
	C612.280762,809.182129 612.191650,797.659668 620.076660,788.332703 
	C623.691895,784.056335 628.396729,780.701050 632.869995,776.633667 
z" data-index="15"></path>

<path fill="#FEFEFE" opacity="1.000000" stroke="none" d="
M548.711365,832.785645 
	C539.265686,842.149719 526.559509,839.877686 520.787598,833.132690 
	C516.655762,828.304199 514.909485,822.233032 516.633484,815.933411 
	C518.263550,809.977051 520.674194,804.234314 522.812622,798.196777 
	C522.028870,797.696228 520.399475,796.655701 518.931885,795.718445 
	C520.842957,789.777832 524.703796,788.496399 530.114136,788.866699 
	C534.651611,789.177185 539.264648,788.182739 543.851257,788.079834 
	C545.496338,788.042969 548.091431,788.474670 548.584717,789.497253 
	C549.212402,790.798523 548.145691,792.916992 547.801086,794.726807 
	C562.594360,798.417664 560.375183,816.124207 554.282410,826.132141 
	C552.856323,828.474731 550.763672,830.411560 548.711365,832.785645 
M539.016052,797.482788 
	C530.282898,802.442871 525.931396,810.016602 526.042297,819.987366 
	C526.133240,828.169861 532.223206,831.723816 539.495483,828.085938 
	C544.875793,825.394409 549.800049,815.115417 549.119507,809.074707 
	C548.732849,805.642456 547.570312,803.984436 543.994263,803.948914 
	C540.846069,803.917664 539.819275,801.824890 540.001282,798.908081 
	C540.039429,798.296143 539.755066,797.664124 539.016052,797.482788 
z" data-index="17" style="opacity: 1;"></path>
<path fill="#FFFFFF" opacity="1.000000" stroke="none" d="
M306.218628,805.408813 
	C307.726624,802.870850 309.038391,800.674377 309.878723,799.267334 
	C308.823914,797.402649 306.864410,795.469788 307.237640,794.251587 
	C307.848114,792.258911 309.823700,789.427246 311.491699,789.231201 
	C319.130157,788.333130 326.861786,788.228210 335.217377,787.805115 
	C334.887970,790.483765 334.630127,792.580261 334.373871,794.663757 
	C342.161102,795.496216 347.215271,805.751038 345.297699,813.649963 
	C343.778625,819.907288 341.755768,825.654724 337.754303,830.560791 
	C332.722626,836.729858 326.006012,839.917175 318.056458,838.882996 
	C311.789825,838.067749 306.945770,834.474670 304.814911,828.246765 
	C302.214264,820.645630 302.673187,813.091125 306.218628,805.408813 
M315.049500,827.441956 
	C318.000763,827.964294 321.238098,829.533447 323.851440,828.819214 
	C332.922211,826.340393 334.845703,818.483215 335.949310,810.481567 
	C336.450867,806.844666 334.967407,804.065491 330.975739,803.512390 
	C326.803986,802.934387 326.234863,800.522827 327.660553,796.927002 
	C314.454590,802.758240 309.010681,815.769592 315.049500,827.441956 
z" data-index="18" style="opacity: 1;"></path>
<path fill="#FFFFFF" opacity="1.000000" stroke="none" d="
M935.380859,793.859863 
	C938.153320,810.138245 922.955139,824.179749 907.378174,820.270996 
	C909.632324,827.758179 916.082520,830.398315 923.440125,826.848572 
	C925.923584,825.650269 928.405945,822.956543 930.361877,827.738525 
	C931.991821,831.723145 930.598206,833.948059 927.051270,835.478699 
	C918.556946,839.144165 910.235901,839.919312 903.035461,832.912964 
	C900.861511,830.797668 898.635498,827.822571 898.208374,824.975098 
	C895.642029,807.863281 904.341858,793.747803 920.222656,788.328735 
	C926.036621,786.344727 932.126160,788.724487 935.380859,793.859863 
M915.968872,810.541016 
	C922.905823,808.279907 926.931458,803.657043 926.631958,798.296021 
	C917.451721,797.529053 911.320679,802.429749 908.405579,813.185791 
	C910.847839,812.399292 913.074158,811.682312 915.968872,810.541016 
z" data-index="19" style="opacity: 1;"></path>
<path fill="#FEFEFE" opacity="1.000000" stroke="none" d="
M968.668640,789.006836 
	C974.921326,792.180054 977.060791,798.950073 974.215332,805.250977 
	C970.089111,814.387939 962.320068,818.732849 953.103516,820.887207 
	C951.340820,821.299255 949.237366,820.253174 947.335815,819.888428 
	C947.213196,823.207458 950.701660,828.032288 954.103088,827.886902 
	C957.569336,827.738647 961.406616,827.432556 964.331543,825.828369 
	C967.569092,824.052734 969.172485,825.887329 969.850037,827.673950 
	C970.544617,829.505371 970.409180,833.129089 969.235046,833.940979 
	C963.560669,837.865051 956.841125,839.389343 950.204468,837.525879 
	C943.478882,835.637268 939.092285,831.034180 937.922302,823.546997 
	C935.788086,809.890442 940.841064,799.409241 951.848083,791.890381 
	C956.552734,788.676575 962.163635,786.372070 968.668640,789.006836 
M961.421814,807.046875 
	C961.894653,806.580322 962.557129,806.197449 962.806641,805.632263 
	C963.766174,803.459473 964.593445,801.228149 965.470032,799.018677 
	C962.724731,799.104309 959.306641,798.182800 957.368774,799.477234 
	C952.800293,802.528687 948.926514,806.629150 948.160034,813.394348 
	C952.673279,811.346741 956.792664,809.477844 961.421814,807.046875 
z" data-index="20" style="opacity: 1;"></path>
<path fill="#FFFFFE" opacity="1.000000" stroke="none" d="
M794.811462,913.000061 
	C780.349548,913.000305 766.355652,912.623291 752.392212,913.113464 
	C739.995178,913.548645 731.237427,903.291626 731.994873,892.549805 
	C732.029907,892.052917 731.999329,891.551514 731.999329,891.052185 
	C731.998962,882.754089 731.998901,882.754089 740.484558,883.173218 
	C740.988586,886.829041 741.492065,890.497375 742.000549,894.164978 
	C742.710693,899.288147 745.770264,902.812683 750.793274,902.909119 
	C764.058472,903.163757 777.331787,902.995361 790.985352,902.995361 
	C790.985352,893.547852 790.985352,884.475830 790.985352,875.207153 
	C794.438904,875.207153 797.507263,875.207153 800.998901,875.207153 
	C800.998901,886.791504 800.975037,898.228943 801.010742,909.666260 
	C801.024841,914.181213 797.682495,912.723511 794.811462,913.000061 
z" data-index="21"></path>
<path fill="#FFFFFF" opacity="1.000000" stroke="none" d="
M278.266418,815.324768 
	C278.277954,813.506775 278.453430,811.798767 277.778992,810.549561 
	C272.612366,800.979736 267.427063,791.413025 261.922607,782.036133 
	C259.915375,778.616882 261.966156,776.733765 264.088745,775.670959 
	C266.311646,774.557922 269.238434,773.549316 271.096069,777.284790 
	C275.353149,785.845398 279.940033,794.242004 284.773468,803.428284 
	C288.310120,796.228455 291.635834,789.416504 295.005829,782.626526 
	C295.855591,780.914429 296.998749,779.336853 297.742035,777.585022 
	C299.306335,773.898132 301.673737,774.731384 304.532379,775.875916 
	C308.209778,777.348267 307.370483,779.835938 306.221497,782.244324 
	C302.220642,790.630798 298.153687,798.988403 293.948456,807.274048 
	C289.741333,815.563232 285.354584,823.761597 281.009705,831.980286 
	C279.907562,834.065063 278.665039,836.075623 277.532349,838.041565 
	C268.457245,835.680786 268.140289,834.226135 273.771637,824.660889 
	C275.451172,821.808105 276.628998,818.660034 278.266418,815.324768 
z" data-index="22"></path>
<path fill="#FFFFFF" opacity="1.000000" stroke="none" d="
M507.769562,810.000549 
	C503.338165,810.000610 499.379242,810.000610 495.000671,810.000610 
	C495.000671,815.801270 495.460907,821.302979 494.849182,826.682800 
	C494.392944,830.695435 498.292572,837.930908 490.210693,837.735291 
	C482.217957,837.541809 486.796143,830.423889 486.197601,826.529297 
	C485.398956,821.333008 486.000214,815.921570 486.000214,811.454956 
	C483.977356,809.884888 481.711060,809.010437 481.188171,807.523071 
	C480.292908,804.976440 481.024109,802.459473 483.937469,800.869507 
	C485.005280,800.286743 485.857086,798.369263 485.908234,797.026306 
	C486.123627,791.371033 486.064453,785.701660 485.975677,780.039551 
	C485.919891,776.481018 487.518433,774.934082 491.058777,774.975464 
	C498.053925,775.057312 505.050781,775.017029 512.046814,774.991516 
	C515.236816,774.979919 517.260132,775.767212 517.090454,779.699219 
	C516.927856,783.467346 515.491455,785.116577 511.705475,785.029602 
	C506.380280,784.907227 501.050171,784.998596 495.015686,784.998596 
	C495.015686,789.625183 494.913818,794.211182 495.117157,798.783630 
	C495.150635,799.535522 496.506500,800.827820 497.282379,800.851624 
	C503.050903,801.028076 508.827240,800.947388 514.545166,800.947388 
	C515.513489,809.287109 515.046326,809.924561 507.769562,810.000549 
z" data-index="23" style="opacity: 1;"></path>
<path fill="#FEFEFE" opacity="1.000000" stroke="none" d="
M779.271729,806.704346 
	C787.918640,809.472351 788.619202,817.097412 786.106628,824.150635 
	C782.704468,833.700745 774.609436,837.412659 764.926941,837.974854 
	C762.109741,838.138428 759.265991,837.856323 756.450134,838.031006 
	C753.395752,838.220459 751.764221,837.408264 751.938293,833.927979 
	C752.099121,830.711304 753.263611,829.083313 756.654846,828.965576 
	C760.551392,828.830322 764.446655,828.426880 768.319336,827.951355 
	C769.879211,827.759827 771.825745,827.509705 772.810181,826.511230 
	C774.810059,824.482788 778.114746,821.212830 777.546570,819.748840 
	C776.596985,817.301697 773.240601,815.436890 770.513550,814.124207 
	C767.411987,812.631287 763.388306,812.746460 760.646362,810.873230 
	C753.314453,805.864014 755.319336,793.664185 764.141602,790.556580 
	C769.065247,788.822327 774.569580,788.512268 779.853699,788.123718 
	C782.374084,787.938354 785.275085,788.841736 784.965881,792.523193 
	C784.740845,795.202332 780.542358,797.698792 777.946472,797.523560 
	C774.944824,797.320923 771.870239,797.676392 768.883728,798.147461 
	C768.147766,798.263611 766.936523,800.288330 767.129822,800.546204 
	C768.112915,801.857117 769.310730,803.279846 770.760559,803.908142 
	C773.372437,805.040039 776.217041,805.634644 779.271729,806.704346 
z" data-index="24"></path>
<path fill="#FEFEFE" opacity="1.000000" stroke="none" d="
M424.281555,929.698486 
	C424.011688,927.755371 423.988342,926.139221 423.964966,924.523071 
	C426.563171,924.867432 429.161377,925.211853 432.661316,925.675781 
	C436.427368,921.218811 441.354645,915.760986 445.821686,909.949463 
	C448.185730,906.873962 449.928619,903.269104 451.617249,899.742859 
	C452.949982,896.959839 454.496124,897.472107 456.861389,898.252808 
	C459.112610,898.995850 461.673950,898.865234 464.105499,898.979431 
	C467.253265,899.127380 470.494446,898.699158 473.539734,899.303406 
	C478.841339,900.355408 479.588959,903.342590 475.993347,907.517456 
	C475.585175,907.991333 475.242004,908.521240 474.801849,909.115417 
	C479.434784,910.092834 483.019318,908.042908 483.989502,904.051025 
	C484.066254,903.735229 483.889801,903.310852 484.041016,903.067383 
	C485.497894,900.722656 484.977356,895.936157 489.628113,897.335754 
	C493.777740,898.584473 492.522827,902.837463 491.712524,905.265442 
	C488.221313,915.726624 479.863800,919.580872 467.951965,915.593567 
	C466.484344,915.102234 464.520264,915.581543 462.928467,916.072388 
	C458.637848,917.395325 454.480316,917.941345 450.970001,915.781128 
	C445.114807,922.212158 439.314301,928.653259 433.430389,935.017212 
	C430.355408,938.343018 428.417969,937.846313 426.943481,933.730713 
	C426.459686,932.380493 425.350983,931.254150 424.281555,929.698486 
M465.388153,906.925537 
	C462.437775,906.146912 459.487396,905.368225 455.036682,904.193604 
	C455.902130,906.314758 456.784698,909.412170 457.203339,909.350708 
	C459.728271,908.979858 462.146942,907.885681 465.388153,906.925537 
z" data-index="25" style="opacity: 1;"></path>
<path fill="#FEFEFE" opacity="1.000000" stroke="none" d="
M717.786011,828.559387 
	C716.015808,831.836914 714.586060,834.853333 712.752319,837.600037 
	C712.211914,838.409424 710.456970,838.873901 709.397217,838.691345 
	C708.788086,838.586487 708.065613,836.869263 708.059631,835.873779 
	C707.973389,821.564514 707.949768,807.254272 708.042236,792.945007 
	C708.061157,790.009705 709.968506,787.565308 712.798767,788.233337 
	C714.797119,788.705017 716.722656,791.093262 717.850098,793.093872 
	C718.631897,794.481079 718.000549,796.664734 718.000549,798.643799 
	C720.276672,795.642212 722.136597,792.482239 724.672791,790.018188 
	C728.093750,786.694580 732.974060,787.291870 736.392639,790.872803 
	C739.313904,793.932800 740.124573,801.430969 737.424194,803.909668 
	C736.131714,805.096313 733.896545,805.905518 732.203308,805.736206 
	C731.337952,805.649597 730.572266,803.079590 730.053406,801.534058 
	C729.705505,800.497803 729.870178,799.289429 729.170776,797.960999 
	C723.497192,807.318298 720.617554,817.711365 717.786011,828.559387 
z" data-index="26"></path>
<path fill="#FEFEFE" opacity="1.000000" stroke="none" d="
M977.329102,790.245605 
	C984.859802,787.443604 985.059753,787.440186 984.909607,778.726624 
	C984.842041,774.801941 986.721069,773.983459 989.927551,773.987793 
	C993.041321,773.992004 995.373169,774.567261 995.053772,778.585266 
	C994.792603,781.870300 995.000549,785.192688 995.000549,788.260315 
	C998.320190,791.260864 1006.285339,783.595825 1005.924744,793.295471 
	C1005.639832,800.959778 999.222412,796.774353 994.998474,798.570618 
	C994.998474,808.147278 994.998657,818.227051 994.998230,828.306824 
	C994.998169,829.969971 995.154419,831.651917 994.960327,833.292297 
	C994.579895,836.507446 992.619568,838.039795 989.392761,838.001709 
	C985.918335,837.960754 984.959900,835.924805 984.976013,832.809387 
	C985.035400,821.359680 984.999512,809.909424 984.999512,798.515503 
	C982.375000,798.029114 979.389404,798.307556 977.927795,796.947876 
	C976.708252,795.813354 977.274536,792.759216 977.329102,790.245605 
z" data-index="27"></path>
<path fill="#FEFEFE" opacity="1.000000" stroke="none" d="
M575.219604,794.406677 
	C579.070923,787.820557 584.598206,786.268127 589.916748,789.989563 
	C592.957520,792.117188 594.337830,800.942932 591.789612,803.578247 
	C590.662476,804.743835 588.482178,806.138611 587.362122,805.750244 
	C585.935486,805.255615 584.901306,803.159973 584.083984,801.557556 
	C583.612183,800.632690 583.901123,799.319641 582.644104,797.735535 
	C581.093750,801.671570 579.295959,805.530884 578.046936,809.560364 
	C575.775330,816.888611 573.834229,824.319153 571.731079,831.700134 
	C571.650452,831.983093 571.329224,832.204712 571.102295,832.437500 
	C568.987061,834.606873 566.867981,836.772339 564.750000,838.938965 
	C564.166199,836.391846 563.114624,833.851318 563.078064,831.296265 
	C562.901917,818.997803 563.046753,806.695068 562.968933,794.394531 
	C562.947693,791.042053 563.971619,789.104370 567.683960,788.943909 
	C570.894653,788.805176 572.340454,789.883484 572.038086,793.206421 
	C571.898071,794.744507 572.157104,796.318970 573.192566,798.168762 
	C573.802063,797.029724 574.411560,795.890747 575.219604,794.406677 
z" data-index="28"></path>
<path fill="#FFFFFF" opacity="1.000000" stroke="none" d="
M786.023560,794.939087 
	C786.203857,790.592468 787.867004,788.369934 792.185852,788.981079 
	C794.934082,789.370056 796.189697,788.113831 796.026428,785.277344 
	C795.892639,782.952759 796.099182,780.608826 795.973389,778.283325 
	C795.824280,775.528687 796.434387,773.829468 799.750488,773.940125 
	C802.837280,774.043030 804.945801,774.891479 804.990295,778.348145 
	C805.034729,781.803772 805.000000,785.260315 805.000000,788.995789 
	C807.741516,788.995789 810.154663,789.445679 812.308167,788.889709 
	C815.493774,788.067322 818.030640,789.308960 817.681091,791.977112 
	C817.394714,794.163574 814.822998,796.696167 812.624573,797.794189 
	C810.662598,798.774109 807.824768,798.000183 804.999573,798.000183 
	C804.999573,809.013550 805.009033,819.636292 804.988647,830.259033 
	C804.985779,831.747864 805.097839,833.310608 804.701172,834.710022 
	C803.824829,837.801819 801.283386,838.869263 798.600098,837.818542 
	C797.359802,837.332886 796.138794,835.008423 796.112305,833.496582 
	C795.908569,821.859680 796.000244,810.217651 796.000244,798.700562 
	C792.864258,796.499207 787.939392,800.516724 786.023560,794.939087 
z" data-index="29"></path>
<path fill="#FEFEFE" opacity="1.000000" stroke="none" d="
M714.000732,874.006958 
	C714.001099,885.807007 713.851868,897.111389 714.083069,908.408020 
	C714.163696,912.349426 712.573486,913.147644 709.068237,913.091248 
	C705.756165,913.038025 703.859314,912.665649 703.913818,908.547424 
	C704.122620,892.761536 704.072327,876.970642 703.940125,861.183105 
	C703.911255,857.740234 705.743774,857.120972 708.464111,856.987976 
	C711.441467,856.842468 713.853577,857.534912 713.968628,861.044495 
	C714.104675,865.194946 714.000671,869.353271 714.000732,874.006958 
z" data-index="30" style="opacity: 1;"></path>
<path fill="#FEFEFE" opacity="1.000000" stroke="none" d="
M398.751953,923.307007 
	C393.709747,921.558533 394.452087,917.551208 395.337463,914.476501 
	C396.501617,910.433777 406.598053,900.819031 413.321472,900.937195 
	C419.910614,901.052979 421.453461,902.019470 423.180786,908.687866 
	C428.024841,910.099548 429.990784,907.381348 431.006897,903.223694 
	C431.309326,901.986145 431.433411,900.554810 432.157898,899.609985 
	C432.998596,898.513611 434.410217,897.855103 435.574036,897.006531 
	C436.382996,898.195068 437.665222,899.288696 437.925659,900.587280 
	C439.917664,910.518555 429.927612,918.082214 421.746277,917.009888 
	C418.424683,916.574585 415.820312,915.642822 415.976593,911.542908 
	C416.092865,908.491821 415.096161,907.363342 411.734436,908.610840 
	C406.179840,910.672180 404.350372,913.291931 405.444183,918.980835 
	C405.991760,921.828735 403.014130,923.968689 398.751953,923.307007 
z" data-index="31"></path>

<path fill="#FFFFFF" opacity="1.000000" stroke="none" d="
M741.101685,790.724365 
	C743.176392,789.727356 745.528687,788.246399 747.041748,788.854309 
	C748.483276,789.433472 749.837708,792.176880 749.872864,793.994995 
	C750.114380,806.483154 749.957153,818.978333 750.025879,831.470764 
	C750.045105,834.959290 749.159729,837.826904 745.215210,837.919006 
	C740.989746,838.017700 740.964661,834.790833 740.977722,831.629700 
	C741.033569,818.137695 741.008240,804.645447 741.101685,790.724365 
z" data-index="33"></path>
<path fill="#FEFEFE" opacity="1.000000" stroke="none" d="
M863.990417,868.000488 
	C861.723816,866.306274 858.033569,864.029907 858.351990,863.029480 
	C859.225891,860.283569 861.783447,858.073547 863.955139,855.292114 
	C862.734314,853.489380 864.368530,851.037781 866.810791,849.995178 
	C868.692383,849.191956 871.717346,849.385681 873.431519,850.440308 
	C874.649841,851.189880 874.532654,854.110352 874.831482,855.328186 
	C877.018372,857.932190 879.559570,860.062988 880.707520,862.782043 
	C881.143860,863.815613 878.714417,867.151184 876.995605,867.762146 
	C873.954773,868.842957 870.753967,868.041260 869.880737,865.044128 
	C868.076904,866.016357 866.236267,867.008423 863.990417,868.000488 
z" data-index="34" style="opacity: 1;"></path>

<path fill="#FFFFFF" opacity="1.000000" stroke="none" d="
M559.167297,926.470398 
	C558.334961,922.827454 559.978333,920.068481 562.627869,919.393677 
	C564.826904,918.833618 567.567200,920.399414 571.027527,921.262939 
	C572.827393,919.383850 576.154541,916.645264 579.274109,921.061890 
	C580.503235,922.801941 580.828491,926.980347 579.636719,928.280029 
	C576.528076,931.669983 572.908142,930.237061 570.218201,926.851074 
	C566.114685,931.197144 563.687866,931.148438 559.167297,926.470398 
z" data-index="36"></path>

<path fill="#FFFFFF" opacity="1.000000" stroke="none" d="
M749.441895,768.933350 
	C749.838379,773.018372 749.952026,776.802917 749.990173,780.588135 
	C750.024719,784.018494 747.976685,784.912537 744.891846,785.060730 
	C741.283936,785.234009 740.836060,783.295349 740.969177,780.428772 
	C741.106812,777.465332 740.676453,774.440979 741.121643,771.539551 
	C741.386414,769.813721 742.549927,767.347778 743.875671,766.903259 
	C745.275024,766.433960 747.347656,767.971985 749.441895,768.933350 
z" data-index="38"></path>

<path fill="#FEFEFE" opacity="1.000000" stroke="none" d="
M1078.585205,917.782471 
	C1080.584229,917.813904 1082.233521,918.030334 1083.878052,918.246216 
	C1084.533936,923.744690 1079.093750,922.174255 1076.573730,924.729858 
	C1078.692993,925.582458 1080.525024,926.128418 1082.150269,927.042053 
	C1083.201050,927.632690 1083.948975,928.761597 1084.832642,929.649353 
	C1083.790527,930.433105 1082.812256,931.762268 1081.693726,931.893188 
	C1078.906494,932.219543 1076.041870,932.160400 1073.236938,931.921265 
	C1072.134644,931.827271 1070.545532,931.096008 1070.147461,930.216370 
	C1068.603271,926.803589 1074.236572,918.497253 1078.585205,917.782471 
z" data-index="40" style="visibility: hidden;"></path>
<path fill="#FFFFFF" opacity="1.000000" stroke="none" d="
M407.864441,897.000610 
	C403.579529,896.309021 399.003326,898.926636 395.452057,893.475220 
	C397.810486,892.288635 399.966492,890.590942 402.358612,890.136475 
	C406.488953,889.351868 410.764282,889.170654 414.982758,889.127686 
	C415.977814,889.117615 417.828796,890.682312 417.810944,891.490051 
	C417.777649,892.997742 417.014771,895.355530 415.925140,895.794434 
	C413.607300,896.727905 410.885712,896.658752 407.864441,897.000610 
z" data-index="41"></path>

<path fill="#FEFEFE" opacity="1.000000" stroke="none" d="
M768.166687,929.984863 
	C764.627930,928.547729 762.508057,926.554932 763.721313,922.708740 
	C764.739319,919.481628 767.227417,918.144714 770.138672,919.184814 
	C772.095032,919.883789 775.243347,921.326721 773.850281,924.282654 
	C772.795471,926.520996 770.377502,928.116943 768.166687,929.984863 
z" data-index="43" style="opacity: 1;"></path>
<path fill="#FFFFFF" opacity="1.000000" stroke="none" d="
M822.147949,922.573242 
	C824.166077,920.517578 825.758179,917.499023 828.818481,919.523438 
	C830.269653,920.483337 831.478149,922.468384 831.882690,924.202148 
	C832.531982,926.984619 831.739258,929.633240 828.240784,929.960083 
	C824.686707,930.291992 822.285034,928.844788 822.008728,924.947998 
	C821.961853,924.287170 822.013733,923.619263 822.147949,922.573242 
z" data-index="44"></path>
<path fill="#FEFEFE" opacity="1.000000" stroke="none" d="
M479.210999,931.985046 
	C473.885162,929.192993 476.339264,926.167175 479.264893,922.316956 
	C480.929138,924.421936 482.784027,926.221497 483.751953,928.412903 
	C483.968414,928.902954 481.074310,930.766907 479.210999,931.985046 
z" data-index="45"></path>
<path fill="#FFFFFF" opacity="1.000000" stroke="none" d="
M337.788910,883.430664 
	C337.813904,887.188049 335.730255,888.424805 332.708282,887.901733 
	C329.773224,887.393677 329.638916,884.927063 330.079559,882.626709 
	C330.260132,881.683960 331.572876,880.071350 331.821350,880.168518 
	C333.823792,880.951294 335.695282,882.069275 337.788910,883.430664 
z" data-index="46"></path>
<path fill="#FEFEFE" opacity="1.000000" stroke="none" d="
M452.287750,878.306885 
	C454.257690,877.416931 455.982635,876.859558 457.707550,876.302246 
	C458.108490,877.951233 459.108246,879.761108 458.721863,881.198486 
	C458.409698,882.359741 456.426666,883.071838 455.184814,883.983215 
	C454.137451,882.201965 453.090088,880.420715 452.287750,878.306885 
z" data-index="47"></path>
<path fill="#FFFFFF" opacity="1.000000" stroke="none" d="
M357.585510,889.711365 
	C351.581390,890.881287 351.520660,887.477539 352.251984,883.243774 
	C354.268646,883.243774 356.325775,883.243774 359.210907,883.243774 
	C358.777161,885.371033 358.359955,887.416992 357.585510,889.711365 
z" data-index="48"></path>
<path fill="#F4F5F4" opacity="1.000000" stroke="none" d="
M954.004883,551.002441 
	C954.107239,549.183533 953.704346,547.111206 954.453735,545.616760 
	C955.205872,544.116943 957.004822,542.340637 958.521057,542.159546 
	C966.457581,541.211731 974.441101,540.416321 982.425842,540.190979 
	C988.692810,540.014160 995.004456,540.567322 1001.247864,541.243103 
	C1002.289551,541.355896 1003.767395,543.702148 1003.867859,545.100769 
	C1004.200867,549.738708 1003.996826,554.415161 1003.562500,559.540771 
	C1001.172119,559.864990 999.194946,559.868469 997.268555,559.557495 
	C992.506592,558.788757 987.767944,557.875916 983.019897,557.021057 
	C983.017151,556.855896 983.012878,556.690796 983.011902,556.525635 
	C982.942810,544.742737 982.942749,544.742737 970.326965,546.513306 
	C970.222107,547.972717 970.108887,549.549377 969.634216,551.526917 
	C964.183533,551.619324 959.094177,551.310913 954.004883,551.002441 
z" data-index="49"></path>
<path fill="#E7E7E6" opacity="1.000000" stroke="none" d="
M983.017578,557.487427 
	C987.767944,557.875916 992.506592,558.788757 997.268555,559.557495 
	C999.194946,559.868469 1001.172119,559.864990 1003.556396,560.009644 
	C1003.990540,563.822021 1003.823853,567.639526 1004.049744,571.433716 
	C1004.247864,574.761536 1003.312988,576.321289 999.661865,576.067261 
	C994.406860,575.701538 987.292053,577.697449 984.385132,575.002625 
	C981.635803,572.453796 983.289062,565.151855 983.016907,559.939941 
	C982.982422,559.279602 983.014160,558.615906 983.017578,557.487427 
z" data-index="50"></path>
<path fill="#E4E4E4" opacity="1.000000" stroke="none" d="
M969.956299,558.040344 
	C969.964172,562.836304 969.902893,567.633789 970.008911,572.427612 
	C970.062683,574.859314 969.313416,575.886597 966.656860,576.066101 
	C953.967712,576.923767 953.973145,577.006104 954.001648,564.411377 
	C954.005737,562.592224 954.011169,560.773010 954.437378,558.480103 
	C959.891174,558.053040 964.917114,560.985168 969.956299,558.040344 
z" data-index="51"></path>
<path fill="#F3F3F2" opacity="1.000000" stroke="none" d="
M969.972412,557.607910 
	C964.917114,560.985168 959.891174,558.053040 954.439087,558.013184 
	C954.012756,555.972717 954.006165,553.925415 954.002197,551.440308 
	C959.094177,551.310913 964.183533,551.619324 969.631531,551.964966 
	C969.989624,553.726624 969.989014,555.451111 969.972412,557.607910 
z" data-index="52"></path>

<path fill="#000000" opacity="1.000000" stroke="none" d="
M994.000854,900.060181 
	C993.663696,901.872437 993.737732,903.619812 992.905823,904.591858 
	C991.187500,906.599487 989.085205,909.424500 986.955078,909.595276 
	C985.018127,909.750488 982.300781,907.215088 980.869690,905.197388 
	C977.697083,900.724304 978.150452,895.409302 980.023865,890.708191 
	C980.958252,888.363708 983.855103,885.845703 986.260437,885.357178 
	C988.058350,884.992004 991.553894,887.287292 992.397888,889.224060 
	C993.755432,892.338867 993.548096,896.135620 994.000854,900.060181 
z" data-index="54" style="opacity: 1; stroke-width: 2px; stroke: rgb(13, 153, 255); visibility: hidden;"></path>

<path fill="#000000" opacity="1.000000" stroke="none" d="
M539.317688,797.262085 
	C539.755066,797.664124 540.039429,798.296143 540.001282,798.908081 
	C539.819275,801.824890 540.846069,803.917664 543.994263,803.948914 
	C547.570312,803.984436 548.732849,805.642456 549.119507,809.074707 
	C549.800049,815.115417 544.875793,825.394409 539.495483,828.085938 
	C532.223206,831.723816 526.133240,828.169861 526.042297,819.987366 
	C525.931396,810.016602 530.282898,802.442871 539.317688,797.262085 
z" data-index="56" style="opacity: 1; stroke-width: 2px; stroke: rgb(13, 153, 255); visibility: hidden;"></path>

<path fill="#000000" opacity="1.000000" stroke="none" d="
M915.634705,810.753174 
	C913.074158,811.682312 910.847839,812.399292 908.405579,813.185791 
	C911.320679,802.429749 917.451721,797.529053 926.631958,798.296021 
	C926.931458,803.657043 922.905823,808.279907 915.634705,810.753174 
z" data-index="58" style="opacity: 1; stroke-width: 2px; stroke: rgb(13, 153, 255); visibility: hidden;"></path>

<path fill="#000000" opacity="1.000000" stroke="none" d="
M464.994659,906.979553 
	C462.146942,907.885681 459.728271,908.979858 457.203339,909.350708 
	C456.784698,909.412170 455.902130,906.314758 455.036682,904.193604 
	C459.487396,905.368225 462.437775,906.146912 464.994659,906.979553 
z" data-index="60" style="opacity: 1; visibility: hidden;"></path>
</svg>